# xmcd
#
# Track frame offsets: 
#        150
#        10034
#        23489
#        32942
#        43373
#        53281
#        64631
#        75556
#        85302
#        97968
#        109671
#        121868
#        132137
#        142304
#        152776
#        165357
#        177699
#        186802
#        196806
#        205813
#        218542
#        229900
#        241053
#        251880
#        263632
#        274198
#        284907
#        294652
#
# Disc length: 4032 seconds
#
# Revision: 3
# Processed by: cddbd v1.5.2PL0 Copyright (c) Steve Scherf et al.
# Submitted via: ExactAudioCopyFreeDBPlugin 1.0
#
DISCID=8e0fbe1c
DTITLE=Various Artist - By the Bayou [Ace Records]
DYEAR=2016
DGENRE=Rhythm and Blues
TTITLE0=Roy Perkins - Train to Nowhere
TTITLE1=Dale Houston - Won't You Believe Me
TTITLE2=Phil Cay - Blue Eyes
TTITLE3=John Fred - You Know You Made Me Cry
TTITLE4=King Savoy - I Beg of You
TTITLE5=Gene Dunlap - Problems on My Mind
TTITLE6=Floyd Brown - What I Want
TTITLE7=Frankie Lowery - Baby What Can I Do
TTITLE8=(unknown artist) - The Secret of Love
TTITLE9=The Boogie Kings - Please Forgive Me
TTITLE10=Larry Hart - Slim Needle
TTITLE11=Buck Rogers - Crazy Barry
TTITLE12=Warrent Storm - Troubles, Troubles
TTITLE13=Dale Houston - City Police
TTITLE14=Everett Daigle - High School Sweethearts
TTITLE15=Al "Puddler" Harris - Wait a Minute
TTITLE16=Wiley Jeffers - Lonely, Lonely Heart
TTITLE17=Johnny Preston - Satan in Satin
TTITLE18=Jimmy Trotter - Hungry and Thirtsy
TTITLE19=Forest Rye - My Sweet Baby's Gone
TTITLE20=Buck Rogers - I Can't Live Alone
TTITLE21=Roy Perkins - Sweet Lilly
TTITLE22=Buddy Lorton - Time
TTITLE23=Warren Storm - I'm a Fool to Care
TTITLE24=Johnny Jano - Shed So Many Tears
TTITLE25=Billy Lewis - The Memories
TTITLE26=Jay Richards - Sneaking Home
TTITLE27=John Fred - Shirley
EXTD=
EXTT0=
EXTT1=
EXTT2=
EXTT3=
EXTT4=
EXTT5=
EXTT6=
EXTT7=
EXTT8=
EXTT9=
EXTT10=
EXTT11=
EXTT12=
EXTT13=
EXTT14=
EXTT15=
EXTT16=
EXTT17=
EXTT18=
EXTT19=
EXTT20=
EXTT21=
EXTT22=
EXTT23=
EXTT24=
EXTT25=
EXTT26=
EXTT27=
PLAYORDER=
